<?xml version="1.0" encoding="utf-8"?>
<!-- Generator: Adobe Illustrator 19.0.0, SVG Export Plug-In . SVG Version: 6.00 Build 0)  -->
<svg version="1.1" id="Ebene_1" xmlns="http://www.w3.org/2000/svg" xmlns:xlink="http://www.w3.org/1999/xlink" x="0px" y="0px"
	 viewBox="0 0 512 512" style="enable-background:new 0 0 512 512;" xml:space="preserve">
<style type="text/css">
	.st0{fill:#010202;}
	.st1{fill:#D73527;}
	.st2{fill:#E3623C;}
	.st3{fill:#8B2B24;}
	.st4{fill:#D63527;}
	.st5{fill:#D63428;}
	.st6{fill:#5F2722;}
	.st7{fill:#E3613B;}
	.st8{fill:#8B2B23;}
	.st9{fill:#D63427;}
	.st10{fill:#882A23;}
	.st11{fill:#AF3024;}
	.st12{fill:#B53627;}
	.st13{fill:#030203;}
	.st14{fill:#050202;}
	.st15{fill:#FDFDFD;}
	.st16{fill:#D73428;}
	.st17{fill:#2C0A00;}
	.st18{fill:#D53427;}
	.st19{fill:#A02F25;}
	.st20{fill:#D83628;}
	.st21{fill:#D13327;}
	.st22{fill:#FBFBFB;}
</style>
<g id="XMLID_4_">
	<g id="XMLID_63_">
		<path id="XMLID_108_" class="st0" d="M174,293.4c9.4-4.7,9.5-4.8,5-13.8c-4-7.9-8.3-15.7-12.4-23.6c-0.2-0.3-0.5-0.6-0.5-0.9
			c1.9-6.1,3.8-12.2,6.2-19.7c1.6,2.4,2.2,3.3,2.8,4.2c2.2,3.3,4.4,3.4,6.3-0.1c4-7.6,7.7-15.4,11.7-23c2.7-5.3,5.5-10.4,11.5-13
			c3-1.3,5.5-3.7,8.1-5.7c3.2-2.4,2.6-5.7,2-9.1c-1.6-9.1-3.9-18.2-4.3-27.4c-0.3-7.6,1.5-15.4,2.7-23c0.3-2.1,1.7-4.1,3-6.9
			c0.7,1.6,0.9,2.4,1.4,2.9c1.3,1.3,2.7,2.5,4.1,3.7c1.1-1.5,2.8-2.8,3.2-4.4c1.1-4.1,1.6-8.5,2.5-12.7c1.9-9.1,5-17.7,9.9-25.3
			c1.7,3,3.2,6,5.1,8.8c0.7,1,2.5,2.1,3.6,1.9c0.9-0.1,2-2,2.1-3.2c1.5-14.5,2.9-29,4.3-43.5c0.2-2.2,0-4.5,0-8.3
			c4.2,4.6,7.8,7.9,10.7,11.8c16.3,21.3,25.2,45,22.4,72.3c-0.2,1.7,1.1,3.6,1.7,5.4c1.8-0.6,3.9-0.8,5.2-1.9
			c3.1-2.7,5.9-5.9,9.2-9.3c3.4,8.4,4.9,16.6,3.8,24.9c-1.5,12-3.4,24-5.8,35.9c-0.9,4.3,0.2,6.5,3.5,8.6
			c7.7,5.1,15.3,10.3,19.1,19.5c2.9,7,6.7,13.6,10.3,20.2c0.7,1.3,2.2,2.9,3.3,2.9c1.2-0.1,2.2-1.9,3.4-3c0.9-0.9,1.9-1.8,2.8-2.7
			c0.5,1.1,1.2,2.1,1.6,3.3c1.4,4.2,2.8,8.5,3.9,12.8c0.4,1.5-0.1,3.4-0.8,4.9c-4.9,9.7-10.1,19.3-14.9,29c-0.5,0.9,0.7,3.3,1.8,4.2
			c1.6,1.3,3.8,1.9,6.8,3.2c-3.1,1.5-5.3,2.7-7.6,3.5c-9,3.5-15,10.8-20.4,17.8c-6,7.8-13.8,12.1-22,16.4c-2.8,1.5-5.7,2.7-8.4,4.3
			c-4.5,2.8-4.8,6.2-1.2,10c0.7,0.8,0.8,2.4,1.5,2.8c1.5,0.8,3.7,1.8,5,1.3c5.4-2,10.6-4.6,16.9-7.3c-1,4.4-1.9,7.5-2.2,10.6
			c-0.1,1.2,0.5,3.2,1.5,3.7c1,0.5,3.1,0.1,4.1-0.7c1.7-1.5,3-3.5,4.2-5.4c3.7-5.8,8.8-8.1,15.7-6.7c3.7,0.7,3.8-1.6,3.7-4.1
			c-0.1-3.9,0.2-7.4,5.3-7.1c2.8,3.1,0.4,9.7,7.4,9.6c0.1,1.8,0,3.7,0.4,5.4c0.4,1.5,1.4,2.9,2.2,4.3c1.4-1,3.6-1.7,3.9-2.9
			c2.2-7.6,4-15.2,5.8-22.9c0.2-0.9,0-2,0-3.4c6.6,4.3,5.6-2.4,8.2-5.9c2.5,4.7,4.6,8.8,6.7,12.9c1.1,2.2,1.8,4.7,3,6.8
			c2.1,3.4,3.1,3.4,7.4,0.3c0.3,3.6,0.9,6.6,0.7,9.7c-0.4,8.6,0.6,17,4.3,24.7c2.5,5.1,2.6,9.9,1.3,15.2
			c-5.2,21.3-18.7,36-37.1,46.8c-5.9,3.5-11.9,6.8-18.9,9.6c1.7-5.5,3.4-10.9,5-16.4c4.5-15.1,5.6-30.7,5.2-46.4
			c0-2-1.4-3.9-2.1-5.9c-1.8,0.8-3.7,1.6-5.5,2.4c-0.8,0.4-1.7,1.1-2.4,1c-6-1.4-12.2-1.9-17.2-6.7c-2.5-2.4-6.4-4.1-9.9-4.5
			c-6.7-0.7-9,1.5-8.7,8.5c0.2,5-2,7.7-5.8,9.9c-0.9,0.5-1.8,1-2.5,1.7c-1.9,1.9-5.1,4-5.1,5.9c0,6.4,0.5,6.4,7.2,8.9
			c-1.2,3.6-2.5,7.4,3.8,7.2c1,0,2.3,1.3,3.2,2.3c4.7,5.3,10.1,8,18.7,3.1c-0.6,4.4-1,7.3-1.3,10.1c-0.1,1.3-0.4,2.7,0,3.9
			c1.8,5.2-1.1,10.3-6.5,11.1c-7.7,1.1-11.7,5-12.7,12.9c-0.8,6.1-6.2,6.7-10.2,9.1c-1.3,0.8-3.1,0.8-5.6,1.4
			c2.5-4.4,4.9-8.1,6.7-12c0.9-1.8,0.8-4,1.2-6c-2-0.3-4.1-0.4-6.1-1c-2.6-0.7-5.2-1.8-7.8-2.7c0.9-2,1.4-4.3,2.7-5.8
			c4.4-5,4.1-6.2-0.5-11.1c-4.3-4.6-9.1-6.2-15.1-5.7c-2.8,0.2-5.7,0.5-8.5,0c-7.6-1.3-11.7,3.9-16,8.3c-2.5,2.5-0.6,5.4,1.4,7.9
			c1.5,1.9,2.2,4.3,3.3,6.5c-2.8,0.8-5.5,1.7-8.3,2.4c-1.7,0.4-4.4,0-5,1c-0.7,1.3-0.3,3.8,0.4,5.4c2,4.1,4.4,8.1,5.9,13.2
			c-3.9-1.9-7.9-3.5-11.6-5.8c-1.5-1-2.7-3.3-3.1-5.2c-1.3-7.7-5.2-11.7-13-12.8c-5.4-0.7-8.4-5.9-6.4-11.1c0.4-1,0.3-2.3,0.1-3.4
			c-0.4-3-1-6-1.6-9.1c4.2,0.3,7.4,1.2,10.4,0.6c2.5-0.5,4.8-2.6,7.1-4.1c1.6-1.1,3.1-3.4,4.7-3.5c5.8-0.1,5.3-3.1,3.5-7.2
			c4-1.2,8.2-2.3,7-7.7c-0.4-1.6-0.6-3.6-1.6-4.7c-1.7-1.8-3.9-3-6-4.4c-3.4-2.2-5.4-4.6-5.4-9.2c0-2.9-1.6-8-3.4-8.4
			c-3.6-0.9-8.5-0.4-11.6,1.5c-5.2,3.1-9.5,7.6-15.9,8.4c-3.2,0.4-6.1,1.5-8.9-1.5c-2.3-2.6-4.4-1.7-5.3,1.7
			c-0.3,1.4-0.6,2.9-0.7,4.4c-0.3,18.6,1.9,36.8,8.1,54.4c0.8,2.3,1.4,4.7,2.4,8.2c-12.3-6.6-23.4-12.6-33.4-20.8
			c-13.3-11-20.7-25.2-23.7-41.8c-0.6-3.3,1.1-7.4,2.7-10.7c3.5-7.5,3.8-15.4,3.8-23.3c0-3.2,0.3-6.4,0.5-10.6
			c4.9,4.7,6.9,1.8,8.5-1.4c2.1-4.1,3.7-8.5,5.6-12.7c0.8-1.7,2-3.3,3.2-5c3.3,1.5,1,10.6,6.9,6.2c2.1,7.9,4.1,16.1,6.6,24
			c0.6,1.8,3,2.9,4.6,4.4c0.7-1.8,1.6-3.5,2.2-5.3c0.4-1.2,0.2-2.6,0.3-4.3c7,0.3,4.8-6.4,7.4-9.6c4.3-0.3,5.7,2.2,5.4,6.2
			c-0.4,4.4,0.7,5.4,5.7,4.6c4.7-0.8,10.1,0.8,13.1,5.9c1.2,2.1,2.4,4.4,4.2,6c1.1,1,3.4,1.5,4.9,1.2c0.7-0.2,1.4-2.8,1.3-4.2
			c-0.3-2.7-1.2-5.4-2.1-9.5c5.8,2.2,11,4,16,6.4c3,1.4,4.9,1.8,6.1-1.8c0.2-0.7,0.8-1.4,1.3-1.9c3.6-3.7,3.3-7.4-1.3-10
			c-4-2.3-8.1-4.6-12.3-6.2c-10.9-4.1-16.9-13.6-24.3-21.4c-5.3-5.5-10.8-10.1-18.2-12.2C176.1,295.3,175.3,294.3,174,293.4z
			 M205,214c-1.3,1.7-2.7,3.3-4,5c-2.6,5-5.3,10-7.9,15c-1,2.9-2.1,5.9-3.1,8.8c-1,3.1-2,6.1-2.9,9.2c-0.2,4.5-1.6,9.5-0.3,13.6
			c6,17.8,14.7,34.3,27.2,48.5c7.4,5.3,14.7,10.7,22.1,16c5.6,3.4,11.1,7.1,17,9.9c2.1,1,5.3,0.1,7.9,0c2.6-1.1,5.3-1.9,7.7-3.4
			c8.6-5.6,17.2-11.4,25.6-17.3c2.7-1.9,5.6-4,7.3-6.6c7.6-12.2,15.2-24.6,22.2-37.2c4.3-7.7,6.3-16.4,3-25
			c-4-10.5-9.1-20.6-13.4-30.9c-3-7.2-10.3-8.5-15.9-12c-0.6-0.4-2.4,0.9-3.6,1.5c-2,2.7-4,5.4-5.9,8.1
			c-8.7,7.3-17.5,14.5-26.1,21.9c-4,3.4-7.6,3.3-11.2-0.2c-7.8-7.5-15.6-15.1-23.4-22.6c-0.1-0.3-0.2-0.6-0.3-0.8
			c-1.7-2.7-3.2-5.4-5.1-7.9c-0.7-0.9-2.8-1.6-3.6-1.2C213.6,208.5,209.3,211.3,205,214z M146,409c2.3,2.6,4.7,5.3,7,7.9
			c5,3.7,10,7.4,15,11.1c1,0.9,2.1,1.7,4,3.4c-5.3-16.3-7.8-31.9-6.7-47.6c0.5-8.4,0.2-15.9-6-22.2c-0.6-0.6-0.9-1.4-1.2-2.2
			c-2.4-7-4.8-14-7.1-21c-0.6-1.7-0.4-1.8-2-0.5c-3.7,7.3-7.4,14.6-11.1,21.9c-0.9,2.1-1.8,4.2-2.7,6.3c-0.8,3.2-1.8,6.3-2.3,9.5
			c-1.3,9.1,3.3,16.6,6.9,24.3C141.3,403.2,143.9,406,146,409z M364,340.9c-0.7,1-1.5,1.9-2,3c-3.6,7.6-6.5,15.5-10.9,22.6
			c-2.2,3.6-3,6.6-2.7,10.5c1.3,16.2-0.3,32.2-4.5,47.9c-0.6,1.7-1.2,3.4-2.1,5.8c20.1-10.2,32.7-24.9,38.2-45.6
			c1.2-4.4,1.4-9.8-0.1-14.1c-3.7-10.6-8.6-20.8-13.1-31.1c-0.3-0.8-1.2-1.3-2.3-2.5C364.3,339.1,364.1,340,364,340.9z M236.9,116.7
			c-5.7,11.1-5.2,23-4.4,34.9c0.1,1.8-0.3,3.7-0.5,5.6c-4.2-1-8.4-2-13.1-3.2c-0.1,1-0.4,2.9-0.6,4.8c0.7,18.2,5,35.3,15,50.8
			c5.3,8.1,11.2,15.6,19.7,20.7c2.5,1.5,4.7,2.4,7-0.2c10.1-6.4,19.9-13.6,25.2-24.6c3.9-8.1,7.2-16.8,9-25.5
			c2-10,2.1-20.3,2.8-30.6c0.1-0.8-1.1-1.7-1.8-2.5c-2,1.7-3.9,3.7-6.2,5c-3.6,2.2-7.4,4.1-11.1,6.1c-0.5-0.8-1.5-1.6-1.4-2.4
			c0.4-12.1,1.7-24.3,1.2-36.3c-0.3-8.1-2.5-16.4-5.2-24.1c-2.3-6.5-6.4-12.4-9.8-18.5c-0.8-1.5-1.8-2.9-3.4-5.4
			c-0.5,5.9-0.8,10.1-1.1,14.4c-1.4,7.1-2.5,14.2-4.3,21.2c-1.7,6.6-4.1,13.1-6.2,19.6c-3.3-4.3-6.6-8.5-10.1-12.9
			C237.5,114.6,237.2,115.7,236.9,116.7z M263.2,363.9c-0.5-0.7-0.9-1.3-1.4-2c2-3.2,4.1-6.3,5.9-9.6c0.6-1.1,0.5-2.7,0.8-4
			c-1.4-0.2-2.8-0.6-4.1-0.5c-3.6,0.2-7.2,1-10.8,0.9c-2.9-0.1-5.7-1.2-10-2.2c3.3,6.1,6,10.9,8.6,15.8c-0.4,0.5-0.9,1.1-1.3,1.6
			c-5-1.8-10-3.6-16-5.9c-0.7,4.4-3.2,9.8-1.5,13c2.4,4.7,7.9,7.8,12.4,11.9c0.2-1.3,0.3-1.9,0.4-2.5c0.2-0.7,0.4-1.4,0.6-2.2
			c0.7,0.4,1,0.5,1.2,0.8c9.1,10.5,9.1,10.5,18.3,0c0.3-0.3,0.8-0.4,1.3-0.5c0.4,1.4,0.7,2.7,1.1,4.2c15-13.2,15-13.2,9.6-24.1
			C273.2,360.3,268.2,362.1,263.2,363.9z M248.5,396.4c0,2.5-0.5,5.1,0.2,7.3c0.4,1.3,3.2,3,4,2.7c3-1.4,5.5-1.5,8.5,0
			c0.8,0.4,3.7-1.3,4-2.5c0.7-2.3,0.2-5,0.2-7.4c-0.9,0.4-2.2,0.9-3.5,1.5c-3.9-5.3-5.6-5.3-10.1-0.1
			C250.5,397.2,249.2,396.7,248.5,396.4z M189.9,363.7c3.5-1.8,8.1-1.3,6.8-6.3c-0.3-1.3-2.7-3.3-3.6-3
			C188.4,355.8,190.2,359.8,189.9,363.7z M324.1,363.7c-0.3-4,1.5-8-3.2-9.3c-0.9-0.3-3.3,1.7-3.6,3
			C316,362.5,320.6,362,324.1,363.7z"/>
		<path id="XMLID_103_" class="st1" d="M213.9,314c-12.5-14.2-21.2-30.7-27.2-48.5c-1.4-4,0.1-9,0.3-13.6c2.8,1.3,5.6,2.7,8.4,4
			c0.4-0.5,0.7-0.9,1.1-1.4c-2.2-4-4.4-7.9-6.5-11.9c1-2.9,2.1-5.9,3.1-8.8c1.5-0.6,3-1.2,4.5-1.8c-0.6-0.5-1.1-1-1.7-1.6
			c2.7,1.5,5.4,2.9,9.5,5.1c-1.1-3-1.7-4.6-2.1-5.7c2-3.8,4-7.6,6-11.5c1.6,6,2.2,6.1,7.4,2.2c1-0.7,2.7-0.5,4.3-0.7
			c-0.5-1.4-1.1-2.8-1.5-4.1c2.7,0,5.2,0,7.7,0c7.8,7.5,15.6,15.1,23.4,22.6c3.7,3.6,7.3,3.7,11.2,0.2c8.6-7.4,17.4-14.6,26.1-21.9
			c3.1-1.7,6.2-3.4,9.2-5.1c3.9,4.9,8.3,9.4,11.4,14.7c2.9,5.1,4.4,11,6.5,16.5c0,2,0,4,0,6c-2.5,3.3-4.5,8.6-7.7,9.5
			c-4.8,1.4-6.6,5.6-10.5,7.5c-1.4,0.7-4.1,3-0.6,5.1c-5.1,2.6-10.6,4.7-15.2,7.9c-7.5,5.3-14.7,11.2-16.9,21.6
			c4.4-0.6,8.6-1.7,10.7,3.7c0.4,1,3.5,1.4,5.3,1.2c7.4-1.1,14.7-2.6,22.1-3.9c-0.7,1.4-1.2,3.1-2.2,4.2c-3.3,3.5-6.6,7-10.1,10.2
			c-4.5,4.1-9.1,8.1-13.7,12.1c1-4.3-2.3-6.2-5.2-6.8c-2.5-0.5-5.4,1-5.9,4.2c3,1.6,5.6,3.1,8.1,4.5c-1.3,1.3-2.4,2.7-3.8,3.8
			c-2.7,2.2-5.5,4.1-8.3,6.2c-2.7,0.1-5.8,1-7.9,0c-5.9-2.9-11.4-6.5-17-9.9c-0.2-1.5-1.1-3.5,1.9-3c4.7,6.7,7.1-3.1,11.6-0.4
			c-2.8-6.1-5.3-6.7-10.1-3.4c-1.9,0.8-3.8,1.7-5.9,2.6c0.2-8.5-2.7-17.2,6.5-22.1c1.6-5.6,6.3-3,9.9-3.4
			c-3.9-16.2-36.7-37.4-52.9-33.1c3.9,2.3,6.9,4.2,10.4,6.3c-1.6,0.8-2.8,1.5-5.1,2.7c2.6,1,4,1.5,5.4,2.1l0,0.2
			c-5.9,3-6.7,12.8-0.8,17.7c3.8,3.2,8.8,5.1,13.3,7.6c2.1,1.7,4.1,3.4,6.6,5.5c-3.5,1.3-5.7,2.1-7.7,2.8c-1.6-1.1-3.2-2.2-4.8-3.2
			c-0.2,0.2-0.3,0.5-0.5,0.7c1,0.9,2,1.8,3.4,3.1C215.6,313.4,214.8,313.7,213.9,314z M265,241c-2.9,0.7-5.8,1.7-8.8,1.9
			c-4.5,0.4-8,2-10.1,5.4c4.6,5.2,8.8-2.1,14.2,1.2c4.8,2.8,13.9-4.5,15.7-10.5c1-1.7,1.9-3.3,3.6-6.1c-2.8,1.3-4.4,1.9-5.9,2.8
			C270.7,237.4,267.9,239.2,265,241z M265,266.3c-0.9-4-0.9-7-2.2-9.3c-0.9-1.7-3.3-3.6-5.1-3.7c-2.1,0-4.9,1.4-6.1,3.1
			c-3.5,4.9-2,17,1.9,21.6c2.7,3.1,5.4,2.8,7.2-0.4C262.7,273.8,263.8,269.5,265,266.3z M266.2,290c2.4-3.2,4.6-6.1,7.5-10.1
			C265.4,283.5,262.9,287,266.2,290z"/>
		<path id="XMLID_102_" class="st2" d="M278,158.2c3.7-2,7.5-3.9,11.1-6.1c2.2-1.4,4.1-3.3,6.2-5c0,0.9,0.1,1.9-0.1,2.8
			c-2.1,7.7-3.9,15.4-6.3,23c-4.4,14.1-9.2,28-18.1,40.2c-4,5.4-7.2,11.5-10.7,17.2c-2.3,2.6-4.5,1.6-7,0.2
			c-8.5-5.1-14.4-12.6-19.7-20.7c-10.1-15.4-14.3-32.6-15-50.8c0.2-0.3,0.5-0.6,0.7-0.9c1.7,4.2,3.4,8.3,4.9,12.5
			c1.5,4.1,3,8.3,4.4,12.4c0.6-0.1,1.2-0.1,1.8-0.2c0.9-2.2,1.8-4.4,2.7-6.6c1.6-6.3,2-12.6-0.9-18.8c0.2-1.9,0.6-3.7,0.5-5.6
			c-0.8-11.9-1.3-23.8,4.4-34.9c0.7,7.4,1.2,14.8,2.3,22.1c0.5,3.1,2.3,6,3.5,8.9c0.7-0.1,1.3-0.3,2-0.4c1.1-6.9,2.1-13.8,3.2-20.8
			c2.1-6.5,4.5-13,6.2-19.6c1.8-7,2.9-14.1,4.3-21.2c0.6,0.2,1.8,0.2,1.8,0.5c2.7,10.5,6.4,21,7.5,31.7c1.1,10.7,0.4,21.8-1,32.5
			c-0.9,7-4.6,13.7-7.4,21.6c2.6,0,5.1,0.5,7.4-0.1C273.6,170.3,275.8,164.2,278,158.2z"/>
		<path id="XMLID_101_" class="st3" d="M263.2,363.9c5-1.8,10-3.6,15-5.4c5.4,10.9,5.4,10.9-9.6,24.1c-0.4-1.5-0.7-2.7-1.1-4.2
			c-0.5,0.2-1,0.2-1.3,0.5c-9.2,10.5-9.2,10.5-18.3,0c-0.2-0.2-0.5-0.3-1.2-0.8c-0.2,0.8-0.4,1.5-0.6,2.2c-0.1,0.6-0.2,1.2-0.4,2.5
			c-4.5-4.1-10-7.2-12.4-11.9c-1.7-3.2,0.9-8.5,1.5-13c6,2.2,11,4,16,5.9c0.4-0.5,0.9-1.1,1.3-1.6c-2.6-4.8-5.3-9.7-8.6-15.8
			c4.3,1,7.2,2.1,10,2.2c3.6,0.1,7.2-0.7,10.8-0.9c1.4-0.1,2.8,0.3,4.1,0.5c-0.2,1.4-0.1,2.9-0.8,4c-1.8,3.3-3.9,6.4-5.9,9.6
			C262.3,362.6,262.7,363.3,263.2,363.9z"/>
		<path id="XMLID_100_" class="st3" d="M260.9,339.9c2.8-2,5.6-4,8.3-6.2c1.4-1.1,2.5-2.5,3.8-3.8c1-0.6,1.9-1.3,2.9-1.9
			c4.6-4,9.2-8,13.7-12.1c3.5-3.3,6.9-6.7,10.1-10.2c1-1.1,1.5-2.8,2.2-4.2c0.9-1,1.8-2.3,2.9-3.1c4.2-3.1,6.9-6.9,6.1-12.4
			c1.5-4.1,3.2-8.1,4.5-12.2c0.4-1.4-0.3-3.2-0.5-4.9c0.4-0.9,0.7-1.8,1.1-2.7l-0.1-0.3c1.9-7.7,2.1-15.4-0.9-22.9
			c-2.1-5.5-3.6-11.4-6.5-16.5c-3.1-5.3-7.5-9.8-11.4-14.7c-1.1-1-2.2-2-3.3-2.9c1.2-0.5,3-1.9,3.6-1.5c5.6,3.5,12.9,4.9,15.9,12
			c4.4,10.4,9.4,20.4,13.4,30.9c3.3,8.6,1.3,17.2-3,25c-7,12.6-14.5,24.9-22.2,37.2c-1.7,2.7-4.6,4.8-7.3,6.6
			c-8.4,5.9-17,11.7-25.6,17.3C266.3,338,263.5,338.8,260.9,339.9z"/>
		<path id="XMLID_99_" class="st3" d="M364,340.9c0.2-0.9,0.3-1.8,0.6-3.5c1.1,1.2,2,1.7,2.3,2.5c4.5,10.3,9.4,20.5,13.1,31.1
			c1.5,4.2,1.2,9.6,0.1,14.1c-5.5,20.7-18.1,35.5-38.2,45.6c0.9-2.4,1.5-4.1,2.1-5.8c1.2-0.7,2.9-1.1,3.5-2.2
			c4.4-7.8,9.4-15.3,12.5-23.6C367,380.3,366.8,360.6,364,340.9z"/>
		<path id="XMLID_98_" class="st1" d="M278,158.2c-2.2,6-4.4,12.1-11.5,13.9c-2.2,0.6-4.8,0.1-7.4,0.1c2.8-7.9,6.5-14.5,7.4-21.6
			c1.4-10.7,2.1-21.8,1-32.5c-1.1-10.7-4.8-21.2-7.5-31.7c-0.1-0.3-1.2-0.4-1.8-0.5c0.3-4.3,0.7-8.5,1.1-14.4
			c1.6,2.6,2.6,3.9,3.4,5.4c3.4,6.1,7.5,12,9.8,18.5c2.7,7.7,4.8,16,5.2,24.1c0.5,12.1-0.8,24.2-1.2,36.3
			C276.6,156.6,277.5,157.4,278,158.2z"/>
		<path id="XMLID_97_" class="st2" d="M364,340.9c2.8,19.7,3,39.3-4.1,58.2c-3.1,8.3-8.1,15.8-12.5,23.6c-0.6,1.1-2.3,1.5-3.5,2.2
			c4.2-15.7,5.8-31.7,4.5-47.9c-0.3-3.9,0.5-6.9,2.7-10.5c4.4-7.1,7.3-15,10.9-22.6C362.5,342.9,363.3,341.9,364,340.9z"/>
		<path id="XMLID_96_" class="st2" d="M137.9,359.8c3.7-7.3,7.4-14.6,11.1-21.9c0.8,12.2,0.1,24.8,2.8,36.5
			c4.2,18.1,10.7,35.8,16.2,53.6c-5-3.7-10-7.4-15-11.1c-0.1-1-0.7-2.1-0.4-2.9c4.9-11.1-3.4-21.3-1.3-32.6c-1.9,2.9-3.4,5.1-5,7.5
			c-1.3-0.8-2.3-1.4-3.3-2C141.3,377.9,139.6,368.9,137.9,359.8z"/>
		<path id="XMLID_95_" class="st3" d="M168,428c-5.5-17.8-12.1-35.4-16.2-53.6c-2.7-11.8-2-24.3-2.8-36.5c1.6-1.2,1.5-1.2,2,0.5
			c2.3,7,4.7,14,7.1,21c0.3,0.8,0.6,1.6,1.2,2.2c6.2,6.3,6.5,13.7,6,22.2c-1,15.7,1.5,31.3,6.7,47.6C170.1,429.7,169,428.9,168,428z
			"/>
		<path id="XMLID_94_" class="st4" d="M260,230.2c3.5-5.8,6.7-11.8,10.7-17.2c8.9-12.2,13.7-26.1,18.1-40.2c2.4-7.6,4.3-15.3,6.3-23
			c0.2-0.9,0.1-1.8,0.1-2.8c0.6,0.8,1.8,1.7,1.8,2.5c-0.7,10.2-0.8,20.6-2.8,30.6c-1.8,8.8-5,17.5-9,25.5
			C279.9,216.7,270.2,223.8,260,230.2z"/>
		<path id="XMLID_93_" class="st5" d="M239.9,303.7c-9.2,4.9-6.3,13.5-6.5,22.1c2.1-0.9,4-1.8,5.9-2.6c-0.5,1.3-1,2.6-1.5,3.8
			c-3-0.4-2,1.5-1.9,3c-7.4-5.3-14.7-10.7-22.1-16c0.9-0.3,1.7-0.7,3.1-1.2c-1.4-1.3-2.4-2.2-3.4-3.1c0.2-0.2,0.3-0.5,0.5-0.7
			c1.6,1.1,3.2,2.2,4.8,3.2c2-0.7,4.2-1.6,7.7-2.8c-2.5-2.1-4.5-3.8-6.6-5.5C226.6,303.8,233.3,303.8,239.9,303.7z"/>
		<path id="XMLID_92_" class="st2" d="M146,409c-2.1-3-4.7-5.8-6.2-9.1c-3.5-7.7-8.1-15.3-6.9-24.3c0.5-3.2,1.5-6.3,2.3-9.5
			c2.6,7,5.2,13.9,7.8,20.9c2.2,5.4,4.4,10.7,6.5,16.1C151,407,149.5,409.3,146,409z"/>
		<path id="XMLID_91_" class="st5" d="M227.1,216c-2.5,0-4.9,0-7.7,0c0.5,1.3,1,2.7,1.5,4.1c-1.7,0.2-3.4,0-4.3,0.7
			c-5.2,3.9-5.8,3.8-7.4-2.2c-2,3.8-4,7.6-6,11.5c0.4,1.1,1,2.7,2.1,5.7c-4.1-2.2-6.8-3.7-9.5-5.1c0.6,0.5,1.1,1,1.7,1.6
			c-1.5,0.6-3,1.2-4.5,1.8c2.6-5,5.3-10,7.9-15c6.5-5.3,14.3-5.3,22.1-4.9c1.3,0.4,2.5,0.8,3.8,1.1C227,215.4,227.1,215.7,227.1,216
			z"/>
		<path id="XMLID_90_" class="st1" d="M247.8,126.6c-1.1,6.9-2.1,13.8-3.2,20.8c-0.7,0.1-1.3,0.3-2,0.4c-1.2-3-3.1-5.9-3.5-8.9
			c-1.1-7.3-1.6-14.7-2.3-22.1c0.3-1,0.6-2.1,0.9-3C241.2,118.1,244.5,122.4,247.8,126.6z"/>
		<path id="XMLID_89_" class="st4" d="M232,157.3c2.9,6.1,2.6,12.4,0.9,18.8c-2.9,1.8-3.9,0.3-4.9-2.4c-2-5.2-4.3-10.4-6.6-15.5
			c-0.2-0.4-1.5-0.2-2.4-0.2c-0.2,0.3-0.5,0.6-0.7,0.9c0.2-1.9,0.5-3.8,0.6-4.8C223.6,155.2,227.8,156.2,232,157.3z"/>
		<path id="XMLID_88_" class="st6" d="M248.5,396.4c0.7,0.3,2,0.8,3.3,1.3c4.5-5.2,6.3-5.2,10.1,0.1c1.3-0.5,2.6-1.1,3.5-1.5
			c0,2.4,0.5,5.1-0.2,7.4c-0.3,1.2-3.2,2.9-4,2.5c-3-1.5-5.5-1.3-8.5,0c-0.8,0.4-3.6-1.4-4-2.7C248,401.5,248.5,399,248.5,396.4z"/>
		<path id="XMLID_87_" class="st7" d="M146,409c3.5,0.3,5-2,3.5-5.9c-2.1-5.4-4.3-10.7-6.5-16.1c1,0.6,1.9,1.2,3.3,2
			c1.6-2.4,3.1-4.7,5-7.5c-2.1,11.2,6.3,21.4,1.3,32.6c-0.3,0.8,0.2,1.9,0.4,2.9C150.7,414.3,148.4,411.6,146,409z"/>
		<path id="XMLID_86_" class="st8" d="M226.8,215.2c-1.3-0.4-2.5-0.8-3.8-1.1c-6-3.5-12-0.6-18,0c4.3-2.7,8.6-5.5,13.1-7.9
			c0.8-0.4,3,0.3,3.6,1.2C223.6,209.7,225.1,212.5,226.8,215.2z"/>
		<path id="XMLID_85_" class="st7" d="M143,387c-2.6-7-5.2-13.9-7.8-20.9c0.9-2.1,1.8-4.2,2.7-6.3C139.6,368.9,141.3,377.9,143,387z
			"/>
		<path id="XMLID_84_" class="st9" d="M189.9,242.8c2.2,4,4.4,7.9,6.5,11.9c-0.4,0.5-0.7,0.9-1.1,1.4c-2.8-1.3-5.6-2.7-8.4-4
			C187.9,248.9,188.9,245.8,189.9,242.8z"/>
		<path id="XMLID_83_" class="st10" d="M189.9,363.7c0.3-4-1.5-8,3.2-9.3c0.9-0.3,3.3,1.7,3.6,3C198,362.5,193.4,362,189.9,363.7z"
			/>
		<path id="XMLID_82_" class="st10" d="M324.1,363.7c-3.5-1.8-8.1-1.3-6.9-6.3c0.3-1.3,2.7-3.3,3.6-3
			C325.6,355.8,323.8,359.8,324.1,363.7z"/>
		<path id="XMLID_81_" class="st11" d="M205,214c6-0.6,12-3.5,18,0c-7.8-0.4-15.5-0.4-22.1,4.9C202.3,217.3,203.6,215.6,205,214z"/>
		<path id="XMLID_80_" class="st12" d="M293.8,208.9c1.1,1,2.2,2,3.3,2.9c-3.1,1.7-6.2,3.4-9.2,5.1
			C289.9,214.2,291.9,211.6,293.8,208.9z"/>
		<path id="XMLID_77_" class="st13" d="M316,266.2c-0.4,0.9-0.7,1.8-1.1,2.7c-2.9,1.5-5.8,3-9,4.7c1.7,0.7,3.2,1.3,5,2.1
			c-1.3,1.3-2.2,2.3-2.4,2.5c0.9,3,1.7,5.4,2.4,7.9c0.8,5.5-1.9,9.3-6.1,12.4c-1.1,0.8-1.9,2.1-2.9,3.1c-7.4,1.3-14.7,2.8-22.1,3.9
			c-1.7,0.3-4.9-0.2-5.3-1.2c-2.1-5.4-6.3-4.2-10.7-3.7c2.2-10.3,9.4-16.3,16.9-21.6c4.6-3.3,10.1-5.3,15.2-7.9
			c1.9-0.5,3.7-1.1,5.6-1.6C306.6,268.4,311.3,267.3,316,266.2z M305.5,277.7c-11.8,1.5-20.4,7.6-27.2,16.7
			c-0.6,0.8-0.9,2.6-0.4,3.4c0.5,0.8,2.4,1.5,3.2,1.1c5.9-2.5,11.8-4.9,17.3-8C303.3,288.3,304.7,283.3,305.5,277.7z"/>
		<path id="XMLID_76_" class="st13" d="M239.9,303.7c-6.6,0.1-13.2,0.1-19.9,0.2c-4.5-2.5-9.4-4.4-13.3-7.6
			c-5.9-5-5.1-14.7,0.8-17.7c1.1,2.6,1.7,5.6,3.4,7.7c5.5,6.9,12.7,11.1,21.4,12.6c1.1,0.2,3.3-0.1,3.5-0.7c0.4-1.2,0.2-3-0.5-4
			c-4.7-6.9-11.1-11.9-19.1-14.6c-2.7-0.9-5.8-0.8-8.7-1.2c-1.4-0.5-2.8-1.1-5.4-2.1c2.3-1.3,3.5-1.9,5.1-2.7
			c-3.5-2.1-6.6-4-10.4-6.3c16.1-4.3,49,16.9,52.9,33.1C246.2,300.7,241.5,298,239.9,303.7z"/>
		<path id="XMLID_75_" class="st14" d="M265,266.3c-1.2,3.3-2.3,7.5-4.3,11.3c-1.7,3.3-4.5,3.5-7.2,0.4c-3.9-4.6-5.4-16.7-1.9-21.6
			c1.2-1.7,4-3.2,6.1-3.1c1.8,0,4.2,1.9,5.1,3.7C264.1,259.3,264.2,262.2,265,266.3z"/>
		<path id="XMLID_74_" class="st15" d="M207.6,278.3c2.9,0.4,6,0.3,8.7,1.2c7.9,2.7,14.3,7.6,19.1,14.6c0.7,1,0.9,2.8,0.5,4
			c-0.2,0.5-2.3,0.9-3.5,0.7c-8.7-1.5-16-5.7-21.4-12.6c-1.7-2.1-2.3-5.1-3.4-7.7C207.6,278.6,207.6,278.3,207.6,278.3z"/>
		<path id="XMLID_73_" class="st5" d="M316,266.2c-4.7,1.1-9.5,2.2-14.2,3.3c-1.9,0.5-3.8,1-5.6,1.6c-3.4-2.1-0.8-4.4,0.6-5.1
			c3.9-1.9,5.7-6.2,10.5-7.5c3.2-0.9,5.2-6.2,7.7-9.5c0.3,5.7,0.6,11.3,0.9,17L316,266.2z"/>
		<path id="XMLID_72_" class="st16" d="M276,239c-1.7,6-10.9,13.3-15.7,10.5c-5.5-3.2-9.6,4.1-14.2-1.2c2.2-3.4,5.6-5,10.1-5.4
			c3-0.3,5.8-1.3,8.8-1.9c0.1,0.8,0.1,1.5,0.3,2.8c2.2-1.5,4.1-2.8,6.1-4.1c0.2,0.7,0.5,1.3,0.6,1.7
			C273.3,240.5,274.7,239.8,276,239z"/>
		<path id="XMLID_71_" class="st17" d="M276,328c-1,0.6-1.9,1.3-2.9,1.9c-2.6-1.4-5.2-2.9-8.1-4.5c0.5-3.2,3.4-4.7,5.9-4.2
			C273.7,321.8,277,323.7,276,328z"/>
		<path id="XMLID_70_" class="st17" d="M237.9,327c0.5-1.3,1-2.6,1.5-3.8c4.8-3.3,7.3-2.6,10.1,3.4C245,323.9,242.5,333.7,237.9,327
			z"/>
		<path id="XMLID_69_" class="st18" d="M276,239c-1.3,0.8-2.7,1.5-4.1,2.4c-0.1-0.4-0.4-1.1-0.6-1.7c-2,1.3-3.8,2.6-6.1,4.1
			c-0.1-1.2-0.2-2-0.3-2.8c2.9-1.8,5.7-3.6,8.6-5.3c1.5-0.9,3.2-1.5,5.9-2.8C277.9,235.7,277,237.3,276,239z"/>
		<path id="XMLID_68_" class="st16" d="M266.2,290c-3.3-3-0.7-6.5,7.5-10.1C270.8,283.9,268.6,286.7,266.2,290z"/>
		<path id="XMLID_67_" class="st19" d="M315.9,265.9c-0.3-5.7-0.6-11.3-0.9-17c0-2,0-4,0-6C318,250.5,317.8,258.2,315.9,265.9z"/>
		<path id="XMLID_66_" class="st20" d="M219,158c0.8,0.1,2.2-0.1,2.4,0.2c2.3,5.1,4.6,10.2,6.6,15.5c1,2.7,2,4.2,4.9,2.4
			c-0.9,2.2-1.8,4.4-2.7,6.6c-0.6,0.1-1.2,0.1-1.8,0.2c-1.5-4.1-2.9-8.3-4.4-12.4C222.4,166.2,220.7,162.1,219,158z"/>
		<path id="XMLID_65_" class="st21" d="M311,286c-0.7-2.4-1.5-4.9-2.4-7.9c0.2-0.2,1.1-1.2,2.4-2.5c-1.8-0.8-3.3-1.3-5-2.1
			c3.2-1.7,6.1-3.2,9-4.7c0.2,1.6,1,3.4,0.5,4.9C314.2,277.9,312.5,281.9,311,286z"/>
		<path id="XMLID_64_" class="st22" d="M305.5,277.7c-0.8,5.5-2.2,10.6-7.1,13.2c-5.6,3-11.5,5.5-17.3,8c-0.8,0.4-2.7-0.3-3.2-1.1
			c-0.5-0.8-0.2-2.6,0.4-3.4C285,285.3,293.7,279.2,305.5,277.7z"/>
	</g>
</g>
</svg>
