<?xml version="1.0" encoding="utf-8"?>
<!-- Generator: Adobe Illustrator 19.0.0, SVG Export Plug-In . SVG Version: 6.00 Build 0)  -->
<svg version="1.1" id="shot" xmlns="http://www.w3.org/2000/svg" xmlns:xlink="http://www.w3.org/1999/xlink" x="0px" y="0px"
	 viewBox="0 0 128.3 128.3" style="enable-background:new 0 0 128.3 128.3;" xml:space="preserve">
<style type="text/css">
	.st0{clip-path:url(#XMLID_21_);fill:#F3934A;}
	.st1{clip-path:url(#XMLID_21_);fill:#FFE285;}
	.st2{clip-path:url(#XMLID_22_);fill:#F3934A;}
	.st3{clip-path:url(#XMLID_22_);fill:#FFE285;}
</style>
<g id="right">
	<defs>
		<path id="XMLID_3_" d="M62.7,108.5c-10.5,0-56.8-19-56.8-19c26.1,0,46.3-19,56.8-19s19,8.5,19,19S73.2,108.5,62.7,108.5z"/>
	</defs>
	<use xlink:href="#XMLID_3_"  style="overflow:visible;fill:#DF4327;"/>
	<clipPath id="XMLID_21_">
		<use xlink:href="#XMLID_3_"  style="overflow:visible;"/>
	</clipPath>
	<path id="XMLID_8_" class="st0" d="M58.5,105.5c12.1,3.1,20.5-2.8,23.5-12.8s-2.7-20.6-12.7-23.6s-27.1-19-30.1-8.9
		S37.1,100.1,58.5,105.5z"/>
	
		<ellipse id="XMLID_10_" transform="matrix(-0.3876 0.9218 -0.9218 -0.3876 170.6588 52.9305)" class="st1" cx="67.7" cy="83.2" rx="16.5" ry="21"/>
</g>
<g id="left">
	<defs>
		<path id="XMLID_2_" d="M103.4,20.4c-10.5,0-56.8,19.9-56.8,19.9c26.1,0,46.3,19.9,56.8,19.9s19-8.9,19-19.9S113.9,20.4,103.4,20.4
			z"/>
	</defs>
	<use xlink:href="#XMLID_2_"  style="overflow:visible;fill:#DF4327;"/>
	<clipPath id="XMLID_22_">
		<use xlink:href="#XMLID_2_"  style="overflow:visible;"/>
	</clipPath>
	<path id="XMLID_11_" class="st2" d="M99.3,23.6c12.1-3.2,20.5,2.9,23.5,13.4c3,10.5-2.7,21.6-12.7,24.7S83,81.5,80,71
		S77.8,29.2,99.3,23.6z"/>
	<path id="XMLID_9_" class="st3" d="M102.1,31.1c-10.7,4.7-16.5,15.6-12.9,24.4s15,12.1,25.7,7.4s16.5-15.6,12.9-24.4
		C124.3,29.7,112.8,26.4,102.1,31.1z"/>
</g>
</svg>
